<?xml version="1.0" encoding="utf-8"?>
<!-- Generator: Adobe Illustrator 13.0.2, SVG Export Plug-In . SVG Version: 6.00 Build 14948)  -->
<!DOCTYPE svg PUBLIC "-//W3C//DTD SVG 1.1//EN" "http://www.w3.org/Graphics/SVG/1.1/DTD/svg11.dtd">
<svg version="1.1" id="Ebene_1" xmlns="http://www.w3.org/2000/svg" xmlns:xlink="http://www.w3.org/1999/xlink" x="0px" y="0px"
	 width="14.35px" height="42.88px" viewBox="0 0 14.35 42.88" enable-background="new 0 0 14.35 42.88" xml:space="preserve">
<g>
	<path  style="fill:#24A3DD;" d="M1.497,25.584l2.215-0.188c0.164,1.078,0.545,1.889,1.143,2.432s1.318,0.814,2.162,0.814c1.016,0,1.875-0.383,2.578-1.148
		s1.055-1.781,1.055-3.047c0-1.203-0.338-2.152-1.014-2.848s-1.561-1.043-2.654-1.043c-0.68,0-1.293,0.154-1.84,0.463
		s-0.977,0.709-1.289,1.201l-1.98-0.258l1.664-8.824h8.543v2.016H5.224l-0.926,4.617c1.031-0.719,2.113-1.078,3.246-1.078
		c1.5,0,2.766,0.52,3.797,1.559s1.547,2.375,1.547,4.008c0,1.555-0.453,2.898-1.359,4.031c-1.102,1.391-2.605,2.086-4.512,2.086
		c-1.563,0-2.838-0.438-3.826-1.313S1.638,27.03,1.497,25.584z"/>
</g>
</svg>
